<svg width="18" height="18" fill="none" xmlns="http://www.w3.org/2000/svg"><path d="M3.193 13.537l2.873-.717.166-.664a9.518 9.518 0 01-3.047-.953.38.38 0 01-.038-.62C3.16 10.573 4.5 9.468 4.5 5.635c0-3.232.757-4.87 2.25-4.87h.225A2.401 2.401 0 019 .014c1.41 0 4.5 1.416 4.5 5.62 0 3.833 1.34 4.939 1.35 4.946a.375.375 0 01-.031.621 9.336 9.336 0 01-3.05.957l.166.661 2.872.718A4.206 4.206 0 0118 17.625a.375.375 0 01-.375.375H.375A.375.375 0 010 17.625a4.206 4.206 0 013.193-4.088z" fill="#0008C1"/></svg>