<svg width="19" height="18" fill="none" xmlns="http://www.w3.org/2000/svg"><path d="M18.989 17.534l-.475-1.8c-.225-.873-.909-1.575-1.809-1.859l-3.483-1.1c-.85-.335-1.239-1.63-1.322-2.123a3.077 3.077 0 001.163-2.027.586.586 0 01.096-.386.39.39 0 00.272-.225c.228-.523.37-1.076.424-1.639a.34.34 0 00-.012-.09.963.963 0 00-.384-.547V3.75c0-1.208-.39-1.704-.8-1.991C12.582 1.177 11.924 0 9.502 0 7.35.082 5.629 1.714 5.543 3.75v1.988a.963.963 0 00-.384.546.343.343 0 00-.012.091c.053.564.196 1.116.424 1.64a.33.33 0 00.238.215c.044.02.127.13.127.395.1.794.52 1.521 1.17 2.031-.083.491-.47 1.787-1.295 2.114l-3.514 1.105c-.9.284-1.583.985-1.808 1.858l-.475 1.8c-.054.2.074.405.286.455A.415.415 0 00.397 18h18.208a.386.386 0 00.396-.375.356.356 0 00-.012-.09z" fill="#939393"/></svg>